# xmcd
#
# Track frame offsets:
#	150
#	11540
#	22487
#	35242
#	45660
#	60860
#	72585
#	85837
#	99070
#	112142
#	128197
#	149287
#	159515
#	168405
#	182040
#	194552
#	209475
#
# Disc length: 2950
#
# Revision: 1
# Processed by: cddbd v1.5.1PL0 Copyright (c) Steve Scherf et al.
# Submitted via: ExactAudioCopy v0.90b4
# Normalized: r0:DSETVAR1
#
DISCID=f70b8411
DTITLE=Various Artist - Country Legends
DYEAR=1992
DGENRE=Country
TTITLE0=Dolly Parton - Why'd You Come In Here Lookin' Like That
TTITLE1=Marty Robbings - Singing The Blues
TTITLE2=David Allan Coe - Would You Lay With Me (In A Field Of Stone)
TTITLE3=Willie Nelson - Blue Eyes Crying In The Rain
TTITLE4=Waylon Jennings - What Bothers Me Most
TTITLE5=Johnny Cash - Ring Of Fire
TTITLE6=Carl Smith - I Overlooked An Orchid
TTITLE7=Charlie Rich - Behind Closes Doors
TTITLE8=Johnny Paycheck - She's All I Got
TTITLE9=David Houston And Tammy Wynette - My Elusive Dreams
TTITLE10=Ray Price - Night Life
TTITLE11=Kris Kristofferson - Help Me Make It Through The Night
TTITLE12=Johnny Horton - I'm A One Woman Man
TTITLE13=Lefty Frizell - Long Black Veil
TTITLE14=George Morgan - Room Full Of Roses
TTITLE15=Stacy Dean Campbell - Lonesome Wins Again
TTITLE16=Stonewall Jackson - Smoke Along The Track
EXTD=
EXTT0=
EXTT1=
EXTT2=
EXTT3=
EXTT4=
EXTT5=
EXTT6=
EXTT7=
EXTT8=
EXTT9=
EXTT10=
EXTT11=
EXTT12=
EXTT13=
EXTT14=
EXTT15=
EXTT16=
PLAYORDER=
